<svg width="69" height="65" viewBox="0 0 69 65" fill="none" xmlns="http://www.w3.org/2000/svg">
<rect x="10" y="3.05176e-05" width="59" height="60" rx="9" fill="#AEAEAE"/>
<rect x="52" y="60.1861" width="14.74" height="4.22897" transform="rotate(-28 52 60.1861)" fill="#AEAEAE"/>
<rect x="5.19092" y="6.27902" width="13.3746" height="3.82235" transform="rotate(-28 5.19092 6.27902)" fill="#AEAEAE"/>
<rect y="5.00003" width="60" height="60" rx="9" fill="#C4C4C4"/>
<path d="M31.0607 16.9393C30.4749 16.3536 29.5251 16.3536 28.9393 16.9393L19.3934 26.4853C18.8076 27.0711 18.8076 28.0208 19.3934 28.6066C19.9792 29.1924 20.9289 29.1924 21.5147 28.6066L30 20.1213L38.4853 28.6066C39.0711 29.1924 40.0208 29.1924 40.6066 28.6066C41.1924 28.0208 41.1924 27.0711 40.6066 26.4853L31.0607 16.9393ZM31.5 53L31.5 18H28.5L28.5 53H31.5Z" fill="black"/>
</svg>
