<svg width="69" height="65" viewBox="0 0 69 65" fill="none" xmlns="http://www.w3.org/2000/svg">
<rect x="10" y="3.05176e-05" width="59" height="60" rx="9" fill="#AEAEAE"/>
<rect x="52" y="60.1861" width="14.74" height="4.22897" transform="rotate(-28 52 60.1861)" fill="#AEAEAE"/>
<rect x="5.19092" y="6.27902" width="13.3746" height="3.82235" transform="rotate(-28 5.19092 6.27902)" fill="#AEAEAE"/>
<rect y="5.00003" width="60" height="60" rx="9" fill="#C4C4C4"/>
<path d="M11.4393 34.4393C10.8536 35.0251 10.8536 35.9749 11.4393 36.5607L20.9853 46.1066C21.5711 46.6924 22.5208 46.6924 23.1066 46.1066C23.6924 45.5208 23.6924 44.5711 23.1066 43.9853L14.6213 35.5L23.1066 27.0147C23.6924 26.4289 23.6924 25.4792 23.1066 24.8934C22.5208 24.3076 21.5711 24.3076 20.9853 24.8934L11.4393 34.4393ZM47.5 34L12.5 34V37L47.5 37V34Z" fill="black"/>
</svg>
