<svg width="236" height="195" viewBox="0 0 236 195" fill="none" xmlns="http://www.w3.org/2000/svg">
<rect x="97" width="59" height="60" rx="9" fill="#583C70"/>
<rect x="139" y="60.186" width="14.74" height="4.22897" transform="rotate(-28 139 60.186)" fill="#583C70"/>
<rect x="92.1909" y="6.27905" width="13.3746" height="3.82235" transform="rotate(-28 92.1909 6.27905)" fill="#583C70"/>
<rect x="87" y="5" width="60" height="60" rx="9" fill="#724E91"/>
<path d="M118.061 16.9393C117.475 16.3536 116.525 16.3536 115.939 16.9393L106.393 26.4853C105.808 27.0711 105.808 28.0208 106.393 28.6066C106.979 29.1924 107.929 29.1924 108.515 28.6066L117 20.1213L125.485 28.6066C126.071 29.1924 127.021 29.1924 127.607 28.6066C128.192 28.0208 128.192 27.0711 127.607 26.4853L118.061 16.9393ZM118.5 53V18H115.5V53H118.5Z" fill="#F8C630"/>
<rect x="97" y="130" width="59" height="60" rx="9" fill="#583C70"/>
<rect x="139" y="190.186" width="14.74" height="4.22897" transform="rotate(-28 139 190.186)" fill="#583C70"/>
<rect x="92.1909" y="136.279" width="13.3746" height="3.82235" transform="rotate(-28 92.1909 136.279)" fill="#583C70"/>
<rect x="87" y="135" width="60" height="60" rx="9" fill="#724E91"/>
<path d="M115.939 184.061C116.525 184.646 117.475 184.646 118.061 184.061L127.607 174.515C128.192 173.929 128.192 172.979 127.607 172.393C127.021 171.808 126.071 171.808 125.485 172.393L117 180.879L108.515 172.393C107.929 171.808 106.979 171.808 106.393 172.393C105.808 172.979 105.808 173.929 106.393 174.515L115.939 184.061ZM115.5 148V183H118.5V148H115.5Z" fill="#F8C630"/>
<rect x="177" y="64" width="59" height="60" rx="9" fill="#583C70"/>
<rect x="219" y="124.186" width="14.74" height="4.22897" transform="rotate(-28 219 124.186)" fill="#583C70"/>
<rect x="172.191" y="70.2791" width="13.3746" height="3.82235" transform="rotate(-28 172.191 70.2791)" fill="#583C70"/>
<rect x="167" y="69" width="60" height="60" rx="9" fill="#724E91"/>
<path d="M215.561 100.561C216.146 99.9749 216.146 99.0251 215.561 98.4393L206.015 88.8934C205.429 88.3076 204.479 88.3076 203.893 88.8934C203.308 89.4792 203.308 90.4289 203.893 91.0147L212.379 99.5L203.893 107.985C203.308 108.571 203.308 109.521 203.893 110.107C204.479 110.692 205.429 110.692 206.015 110.107L215.561 100.561ZM179.5 101H214.5V98H179.5V101Z" fill="#F8C630"/>
<rect x="10" y="65" width="59" height="60" rx="9" fill="#583C70"/>
<rect x="52" y="125.186" width="14.74" height="4.22897" transform="rotate(-28 52 125.186)" fill="#583C70"/>
<rect x="5.19092" y="71.2791" width="13.3746" height="3.82235" transform="rotate(-28 5.19092 71.2791)" fill="#583C70"/>
<rect y="70" width="60" height="60" rx="9" fill="#724E91"/>
<path d="M11.4393 99.4393C10.8536 100.025 10.8536 100.975 11.4393 101.561L20.9853 111.107C21.5711 111.692 22.5208 111.692 23.1066 111.107C23.6924 110.521 23.6924 109.571 23.1066 108.985L14.6213 100.5L23.1066 92.0147C23.6924 91.4289 23.6924 90.4792 23.1066 89.8934C22.5208 89.3076 21.5711 89.3076 20.9853 89.8934L11.4393 99.4393ZM47.5 99H12.5V102H47.5V99Z" fill="#F8C630"/>
</svg>
