<svg width="236" height="195" viewBox="0 0 236 195" fill="none" xmlns="http://www.w3.org/2000/svg">
<rect x="97" width="59" height="60" rx="9" fill="#583C70"/>
<rect x="139" y="60.186" width="14.74" height="4.22897" transform="rotate(-28 139 60.186)" fill="#583C70"/>
<rect x="92.1909" y="6.27905" width="13.3746" height="3.82235" transform="rotate(-28 92.1909 6.27905)" fill="#583C70"/>
<rect x="87" y="5" width="60" height="60" rx="9" fill="#724E91"/>
<rect x="97" y="130" width="59" height="60" rx="9" fill="#583C70"/>
<rect x="139" y="190.186" width="14.74" height="4.22897" transform="rotate(-28 139 190.186)" fill="#583C70"/>
<rect x="92.1909" y="136.279" width="13.3746" height="3.82235" transform="rotate(-28 92.1909 136.279)" fill="#583C70"/>
<rect x="87" y="135" width="60" height="60" rx="9" fill="#724E91"/>
<rect x="177" y="64" width="59" height="60" rx="9" fill="#583C70"/>
<rect x="219" y="124.186" width="14.74" height="4.22897" transform="rotate(-28 219 124.186)" fill="#583C70"/>
<rect x="172.191" y="70.2791" width="13.3746" height="3.82235" transform="rotate(-28 172.191 70.2791)" fill="#583C70"/>
<rect x="167" y="69" width="60" height="60" rx="9" fill="#724E91"/>
<rect x="10" y="65" width="59" height="60" rx="9" fill="#583C70"/>
<rect x="52" y="125.186" width="14.74" height="4.22897" transform="rotate(-28 52 125.186)" fill="#583C70"/>
<rect x="5.19092" y="71.2791" width="13.3746" height="3.82235" transform="rotate(-28 5.19092 71.2791)" fill="#583C70"/>
<rect y="70" width="60" height="60" rx="9" fill="#724E91"/>
<path d="M109.783 45.604L110.234 48.6978L110.895 45.9102L115.535 29.5391H118.146L122.673 45.9102L123.318 48.7461L123.817 45.5879L127.459 29.5391H130.569L124.881 53H122.061L117.227 35.9038L116.856 34.1152L116.486 35.9038L111.475 53H108.655L102.983 29.5391H106.077L109.783 45.604Z" fill="#F8C630"/>
<path d="M34.6782 104.877H24.8491L22.6416 111H19.4512L28.4102 87.5391H31.1172L40.0923 111H36.918L34.6782 104.877ZM25.7837 102.331H33.7598L29.7637 91.3579L25.7837 102.331Z" fill="#F8C630"/>
<path d="M116.636 165.542C113.982 164.78 112.049 163.845 110.835 162.739C109.632 161.622 109.03 160.247 109.03 158.614C109.03 156.766 109.766 155.241 111.238 154.038C112.72 152.824 114.643 152.217 117.006 152.217C118.618 152.217 120.052 152.528 121.309 153.151C122.576 153.774 123.554 154.634 124.241 155.729C124.939 156.825 125.289 158.023 125.289 159.323H122.179C122.179 157.905 121.728 156.793 120.825 155.987C119.923 155.171 118.65 154.763 117.006 154.763C115.481 154.763 114.289 155.101 113.429 155.778C112.581 156.444 112.156 157.373 112.156 158.565C112.156 159.521 112.559 160.333 113.365 160.999C114.181 161.654 115.562 162.255 117.506 162.803C119.461 163.351 120.986 163.958 122.082 164.624C123.188 165.279 124.005 166.047 124.531 166.928C125.068 167.809 125.337 168.846 125.337 170.038C125.337 171.939 124.596 173.465 123.113 174.614C121.631 175.753 119.649 176.322 117.167 176.322C115.556 176.322 114.052 176.016 112.656 175.404C111.259 174.781 110.18 173.932 109.417 172.858C108.665 171.784 108.289 170.564 108.289 169.2H111.399C111.399 170.618 111.92 171.741 112.962 172.568C114.015 173.384 115.417 173.792 117.167 173.792C118.8 173.792 120.052 173.459 120.922 172.793C121.792 172.127 122.227 171.22 122.227 170.07C122.227 168.921 121.824 168.035 121.019 167.412C120.213 166.778 118.752 166.155 116.636 165.542Z" fill="#F8C630"/>
<path d="M188.723 111V87.5391H195.346C197.387 87.5391 199.191 87.9902 200.76 88.8926C202.328 89.7949 203.537 91.0786 204.385 92.7437C205.245 94.4087 205.68 96.3208 205.69 98.48V99.9785C205.69 102.191 205.261 104.13 204.401 105.795C203.553 107.46 202.333 108.739 200.744 109.63C199.165 110.522 197.322 110.979 195.217 111H188.723ZM191.817 90.085V108.47H195.072C197.457 108.47 199.31 107.729 200.631 106.247C201.963 104.764 202.629 102.653 202.629 99.9141V98.5444C202.629 95.8804 202 93.8125 200.744 92.3408C199.498 90.8584 197.725 90.1064 195.426 90.085H191.817Z" fill="#F8C630"/>
</svg>
