<svg width="1920" height="1080" viewBox="0 0 1920 1080" fill="none" xmlns="http://www.w3.org/2000/svg">
<rect width="1920" height="1080" fill="#7E7E7E"/>
<rect x="578" y="239" width="804" height="484" fill="#363636"/>
<rect width="9" height="81" transform="matrix(1 0 0 -1 967 815)" fill="#363636"/>
<rect x="1154" y="345.084" width="19.5672" height="441.79" transform="rotate(-28.5 1154 345.084)" fill="#363636"/>
<rect x="930" y="734" width="42" height="86" fill="#262525"/>
<rect x="874" y="815" width="170" height="20" fill="#363636"/>
<rect x="1029" y="826.573" width="9.2878" height="14.483" transform="rotate(-28 1029 826.573)" fill="#363636"/>
<rect x="866" y="819.36" width="9.2878" height="14.483" transform="rotate(-28 866 819.36)" fill="#363636"/>
<rect x="866" y="820" width="170" height="20" fill="#262525"/>
<rect x="537.899" y="261.316" width="46.7685" height="443.087" transform="rotate(-28.5 537.899 261.316)" fill="#363636"/>
<rect x="537" y="260" width="828" height="474" fill="#242323"/>
</svg>
