<svg width="69" height="65" viewBox="0 0 69 65" fill="none" xmlns="http://www.w3.org/2000/svg">
<rect x="10" y="3.05176e-05" width="59" height="60" rx="9" fill="#78B748"/>
<rect x="52" y="60.1861" width="14.74" height="4.22897" transform="rotate(-28 52 60.1861)" fill="#78B748"/>
<rect x="5.19092" y="6.27902" width="13.3746" height="3.82235" transform="rotate(-28 5.19092 6.27902)" fill="#78B748"/>
<rect y="5.00003" width="60" height="60" rx="9" fill="#87CD50"/>
<path d="M48.5607 36.5607C49.1464 35.9749 49.1464 35.0251 48.5607 34.4393L39.0147 24.8934C38.4289 24.3076 37.4792 24.3076 36.8934 24.8934C36.3076 25.4792 36.3076 26.4289 36.8934 27.0147L45.3787 35.5L36.8934 43.9853C36.3076 44.5711 36.3076 45.5208 36.8934 46.1066C37.4792 46.6924 38.4289 46.6924 39.0147 46.1066L48.5607 36.5607ZM12.5 37H47.5V34H12.5V37Z" fill="black"/>
</svg>
