<svg width="69" height="65" viewBox="0 0 69 65" fill="none" xmlns="http://www.w3.org/2000/svg">
<rect x="10" width="59" height="60" rx="9" fill="#583C70"/>
<rect x="52" y="60.186" width="14.74" height="4.22897" transform="rotate(-28 52 60.186)" fill="#583C70"/>
<rect x="5.19092" y="6.27905" width="13.3746" height="3.82235" transform="rotate(-28 5.19092 6.27905)" fill="#583C70"/>
<rect y="5" width="60" height="60" rx="9" fill="#724E91"/>
<path d="M28.9393 54.0607C29.5251 54.6464 30.4749 54.6464 31.0607 54.0607L40.6066 44.5147C41.1924 43.9289 41.1924 42.9792 40.6066 42.3934C40.0208 41.8076 39.0711 41.8076 38.4853 42.3934L30 50.8787L21.5147 42.3934C20.9289 41.8076 19.9792 41.8076 19.3934 42.3934C18.8076 42.9792 18.8076 43.9289 19.3934 44.5147L28.9393 54.0607ZM28.5 18L28.5 53H31.5L31.5 18H28.5Z" fill="#F8C630"/>
</svg>
